<?xml version="1.0" standalone="no"?>
<!DOCTYPE svg PUBLIC "-//W3C//DTD SVG 20010904//EN"
 "http://www.w3.org/TR/2001/REC-SVG-20010904/DTD/svg10.dtd">
<svg version="1.0" xmlns="http://www.w3.org/2000/svg"
 width="3543.000000pt" height="1773.000000pt" viewBox="0 0 3543.000000 1773.000000"
 preserveAspectRatio="xMidYMid meet">
<metadata>
Created by potrace 1.10, written by Peter Selinger 2001-2011
</metadata>
<g transform="translate(0.000000,1773.000000) scale(0.100000,-0.100000)"
fill="#000000" stroke="none">
<path d="M2355 16610 c-71 -4 -143 -13 -158 -19 -16 -6 -40 -11 -54 -11 -15 0
-51 -7 -82 -16 -31 -8 -81 -22 -111 -31 -52 -14 -70 -20 -172 -59 -68 -25
-148 -63 -286 -133 -46 -24 -193 -122 -277 -185 -71 -54 -289 -263 -355 -341
-59 -69 -165 -217 -183 -255 -4 -8 -21 -37 -37 -65 -17 -27 -49 -88 -71 -135
-23 -47 -45 -93 -50 -102 -26 -52 -104 -293 -122 -378 -34 -162 -38 -190 -47
-340 -20 -309 8 -613 75 -830 36 -114 80 -241 94 -268 5 -9 25 -51 45 -92 201
-415 502 -739 909 -978 48 -29 89 -52 92 -52 2 0 41 -18 88 -39 84 -40 112
-51 222 -88 113 -39 250 -72 390 -95 65 -11 891 -13 4480 -13 4526 0 4419 -1
4600 36 28 5 68 13 90 18 22 4 56 13 75 19 19 6 64 21 100 32 36 11 74 24 85
29 11 5 45 19 75 31 168 67 401 206 546 325 98 80 302 293 375 390 165 220
295 472 363 705 9 30 23 77 31 103 8 26 15 55 15 65 0 9 7 46 15 82 62 274 52
677 -26 985 -6 22 -14 56 -19 75 -10 43 -33 110 -81 235 -22 55 -115 246 -150
305 -20 34 -141 214 -148 220 -3 3 -32 37 -64 77 -90 114 -232 249 -372 356
-135 103 -316 208 -470 273 -16 7 -46 20 -67 28 -20 9 -41 16 -47 16 -6 0 -25
6 -43 14 -18 8 -60 22 -93 31 -33 9 -75 21 -93 27 -18 5 -59 14 -90 19 -31 5
-77 14 -102 21 -35 9 -1053 12 -4405 13 -2398 1 -4418 -1 -4490 -5z m8783
-376 c128 -23 286 -64 349 -91 17 -7 36 -13 41 -13 6 0 23 -6 39 -14 15 -8 73
-36 128 -63 170 -82 298 -173 491 -349 61 -55 184 -207 246 -303 81 -124 80
-123 123 -211 20 -41 42 -88 50 -103 8 -16 15 -33 15 -39 0 -5 6 -24 13 -41
23 -53 39 -100 46 -137 5 -19 13 -53 19 -75 38 -142 47 -222 47 -445 0 -176
-4 -244 -18 -315 -23 -113 -66 -275 -88 -330 -45 -112 -88 -208 -109 -245 -14
-25 -29 -52 -33 -60 -31 -62 -128 -199 -201 -282 -153 -174 -335 -327 -496
-416 -53 -30 -218 -112 -225 -112 -4 0 -21 -6 -38 -14 -62 -27 -196 -67 -302
-90 -216 -48 -50 -46 -4493 -46 -3616 0 -4176 2 -4284 15 -170 20 -332 56
-416 91 -18 8 -40 14 -50 14 -9 0 -26 7 -36 15 -11 8 -26 15 -34 15 -20 0
-193 88 -277 140 -195 122 -376 287 -514 470 -48 63 -90 122 -94 130 -4 8 -16
29 -27 45 -17 26 -96 185 -135 270 -20 44 -71 210 -89 290 -75 340 -59 674 46
1000 35 107 33 102 98 239 66 139 94 184 196 322 166 223 415 431 664 554 58
28 118 58 133 66 16 8 33 14 39 14 5 0 24 6 41 13 58 25 210 65 337 90 65 12
671 14 4393 16 3879 1 4327 -1 4405 -15z"/>
<path d="M5362 15629 c-113 -41 -231 -143 -278 -240 -38 -77 -54 -117 -54
-131 0 -8 -4 -18 -9 -24 -5 -5 -14 -25 -19 -44 -6 -19 -20 -60 -32 -90 -11
-30 -30 -82 -41 -115 -11 -33 -25 -69 -30 -80 -5 -11 -13 -33 -18 -50 -5 -16
-19 -55 -31 -85 -11 -30 -30 -82 -41 -115 -11 -33 -25 -69 -30 -80 -5 -11 -13
-33 -18 -50 -5 -16 -19 -55 -31 -85 -12 -30 -24 -64 -27 -75 -3 -11 -11 -34
-19 -52 -8 -17 -14 -37 -14 -45 0 -8 -4 -18 -9 -23 -5 -6 -14 -26 -20 -45 -15
-52 -66 -193 -73 -205 -3 -5 -10 -26 -16 -45 -6 -19 -20 -60 -32 -90 -46 -120
-52 -136 -57 -160 -3 -14 -9 -29 -13 -35 -4 -5 -13 -26 -18 -45 -6 -19 -20
-60 -32 -90 -35 -88 -42 -130 -36 -203 7 -96 51 -165 130 -209 59 -32 193 -33
252 -1 87 46 138 133 194 328 9 33 29 89 41 120 15 37 40 110 48 140 4 17 15
45 25 63 l17 32 455 0 c295 0 462 -4 475 -10 10 -6 19 -18 19 -26 0 -9 6 -30
13 -47 18 -41 37 -94 47 -132 17 -58 70 -210 80 -227 6 -10 10 -24 10 -32 0
-21 40 -108 66 -142 13 -18 45 -44 71 -60 43 -25 58 -28 133 -28 62 0 94 5
120 18 133 69 182 216 124 372 -14 38 -30 85 -36 104 -5 19 -14 40 -18 45 -4
6 -10 21 -13 35 -3 14 -15 50 -27 80 -12 30 -26 71 -32 90 -5 19 -14 40 -18
45 -4 6 -10 21 -13 35 -3 14 -15 50 -27 80 -12 30 -26 71 -32 90 -5 19 -14 40
-18 45 -4 6 -10 21 -13 35 -3 14 -15 50 -27 80 -12 30 -26 71 -32 90 -5 19
-14 40 -18 45 -4 6 -10 21 -13 35 -3 14 -15 50 -27 80 -12 30 -26 71 -32 90
-5 19 -14 40 -18 45 -4 6 -10 21 -13 35 -3 14 -15 50 -26 80 -12 30 -33 87
-46 125 -43 125 -55 160 -65 180 -5 11 -18 47 -29 80 -11 33 -30 85 -41 115
-12 30 -25 67 -30 81 -12 40 -74 133 -117 176 -58 58 -113 92 -203 124 -76 27
-262 26 -338 -2z m186 -527 c7 -5 31 -62 53 -128 22 -65 43 -128 48 -139 10
-25 21 -57 72 -210 21 -66 43 -129 48 -140 13 -32 32 -87 42 -125 20 -71 43
-65 -274 -68 -237 -2 -288 0 -293 12 -3 7 13 67 36 132 22 66 59 171 80 234
22 63 56 160 76 215 19 55 39 114 43 130 10 38 39 95 49 95 4 0 13 -4 20 -8z"/>
<path d="M8810 15626 c-63 -18 -125 -59 -154 -104 -55 -83 -56 -94 -56 -884 0
-613 -2 -728 -14 -728 -7 0 -16 8 -19 18 -3 9 -22 44 -41 77 -20 33 -39 67
-43 75 -4 8 -25 47 -48 85 -22 39 -44 77 -48 85 -4 8 -18 33 -30 55 -13 22
-41 72 -62 110 -39 71 -70 125 -92 160 -7 11 -19 34 -27 50 -8 17 -29 53 -45
80 -17 28 -34 57 -38 65 -4 8 -26 48 -50 88 -24 41 -43 75 -43 78 0 2 -20 38
-45 80 -25 41 -45 77 -45 80 0 4 -83 148 -100 174 -6 8 -14 24 -19 36 -37 85
-120 194 -181 239 -80 59 -141 77 -261 77 -108 0 -122 -3 -217 -50 -50 -26
-117 -100 -154 -172 l-33 -65 0 -1035 0 -1035 29 -48 c56 -94 174 -157 269
-143 26 4 49 11 52 17 4 5 13 9 21 9 24 0 84 51 112 94 50 81 51 95 52 899 0
682 1 748 16 745 9 -2 26 -21 38 -43 23 -43 93 -167 113 -200 6 -11 19 -33 27
-50 8 -16 29 -52 45 -80 17 -27 34 -57 38 -65 8 -18 89 -158 103 -180 6 -8 14
-24 19 -36 8 -18 72 -129 101 -174 5 -8 16 -28 24 -45 8 -16 29 -52 45 -80 17
-27 34 -57 38 -65 4 -8 26 -48 50 -88 24 -41 43 -75 43 -78 0 -4 83 -148 100
-174 6 -8 13 -22 17 -30 28 -65 124 -208 167 -248 77 -73 196 -122 297 -122
59 0 154 27 203 57 50 31 109 95 132 142 9 20 22 45 28 56 8 14 12 325 14
1058 2 1009 2 1038 -17 1080 -22 48 -75 109 -111 127 -29 15 -119 40 -140 39
-8 0 -35 -6 -60 -13z"/>
<path d="M2430 15598 c-83 -30 -164 -97 -195 -163 -45 -93 -45 -96 -45 -1080
0 -996 0 -986 49 -1082 24 -48 113 -131 150 -139 14 -4 32 -12 40 -18 22 -18
1120 -15 1186 3 178 48 267 94 360 186 106 104 162 213 190 370 55 301 -48
575 -262 702 -24 14 -43 27 -43 30 0 2 31 35 68 71 76 74 111 127 149 229 24
62 26 81 26 223 0 131 -3 164 -20 215 -87 249 -259 398 -529 459 -61 14 -147
16 -570 15 -472 -1 -502 -2 -554 -21z m956 -510 c74 -14 125 -45 155 -95 21
-33 24 -50 24 -128 -1 -83 -3 -94 -30 -135 -21 -30 -48 -53 -85 -72 l-55 -27
-330 2 -330 2 -3 213 c-1 135 1 220 8 232 10 19 22 20 299 20 179 0 310 -4
347 -12z m68 -958 c73 -25 110 -52 144 -104 25 -38 27 -49 27 -146 0 -87 -3
-111 -20 -139 -36 -63 -70 -87 -159 -115 -41 -13 -107 -16 -371 -16 -236 0
-324 3 -333 12 -17 17 -17 499 0 516 9 9 97 12 333 12 294 0 327 -2 379 -20z"/>
<path d="M9750 15602 c-94 -37 -141 -73 -185 -142 -56 -88 -55 -77 -55 -1098
0 -986 0 -996 43 -1078 21 -40 96 -124 111 -124 7 0 17 -5 23 -11 7 -7 36 -20
65 -30 48 -17 89 -19 458 -19 418 0 484 5 640 47 169 46 362 152 465 257 31
31 119 143 142 181 25 40 83 166 83 180 0 7 4 16 9 20 5 3 13 20 16 38 4 17
13 52 20 77 38 132 47 230 42 495 -4 251 -9 300 -44 440 -86 341 -320 601
-633 705 -215 71 -243 74 -720 76 -392 3 -439 1 -480 -14z m820 -517 c69 -6
147 -27 217 -57 33 -15 129 -86 160 -119 23 -26 84 -137 97 -179 65 -206 62
-579 -6 -760 -35 -95 -108 -189 -183 -238 -137 -90 -253 -112 -577 -112 -165
0 -199 2 -212 16 -14 14 -16 93 -16 724 0 690 1 709 19 722 15 11 65 14 223
12 112 -1 237 -5 278 -9z"/>
</g>
</svg>
